<svg width="22" height="22" viewBox="0 0 22 22" fill="currentColor" xmlns="http://www.w3.org/2000/svg">
<path fill-rule="evenodd" clip-rule="evenodd" d="M11.7659 0.484055C11.5627 0.280962 11.2872 0.16687 11 0.16687C10.7127 0.16687 10.4372 0.280962 10.234 0.484055L2.65072 8.06739L0.484049 10.2341C0.38058 10.334 0.298049 10.4535 0.241273 10.5857C0.184496 10.7179 0.154611 10.86 0.153361 11.0039C0.152111 11.1477 0.179521 11.2904 0.233992 11.4235C0.288463 11.5566 0.368904 11.6776 0.470621 11.7793C0.572338 11.881 0.693295 11.9615 0.826432 12.0159C0.95957 12.0704 1.10222 12.0978 1.24607 12.0966C1.38991 12.0953 1.53207 12.0654 1.66424 12.0087C1.79641 11.9519 1.91595 11.8694 2.01588 11.7659L2.3333 11.4485V18.5833C2.3333 19.4453 2.67571 20.2719 3.2852 20.8814C3.8947 21.4909 4.72135 21.8333 5.5833 21.8333H16.4166C17.2786 21.8333 18.1052 21.4909 18.7147 20.8814C19.3242 20.2719 19.6666 19.4453 19.6666 18.5833V11.4485L19.9841 11.7659C20.1884 11.9632 20.462 12.0724 20.7461 12.07C21.0301 12.0675 21.3018 11.9536 21.5027 11.7527C21.7035 11.5518 21.8175 11.2801 21.8199 10.9961C21.8224 10.712 21.7132 10.4384 21.5159 10.2341L11.7659 0.484055Z" fill="currentColor"/>
</svg>
