<svg width="20" height="14" viewBox="0 0 20 14" fill="none" xmlns="http://www.w3.org/2000/svg">
<path d="M12.4999 8.66671C10.2749 8.66671 5.83325 9.77504 5.83325 12V13.6667H19.1666V12C19.1666 9.77504 14.7249 8.66671 12.4999 8.66671ZM4.99992 5.33337V2.83337H3.33325V5.33337H0.833252V7.00004H3.33325V9.50004H4.99992V7.00004H7.49992V5.33337M12.4999 7.00004C13.384 7.00004 14.2318 6.64885 14.8569 6.02373C15.4821 5.39861 15.8333 4.55076 15.8333 3.66671C15.8333 2.78265 15.4821 1.93481 14.8569 1.30968C14.2318 0.684563 13.384 0.333374 12.4999 0.333374C11.6159 0.333374 10.768 0.684563 10.1429 1.30968C9.51777 1.93481 9.16658 2.78265 9.16658 3.66671C9.16658 4.55076 9.51777 5.39861 10.1429 6.02373C10.768 6.64885 11.6159 7.00004 12.4999 7.00004Z" fill="white"/>
</svg>
