<svg width="16" height="16" viewBox="0 0 16 16" fill="none" xmlns="http://www.w3.org/2000/svg">
<path d="M2.16667 0.5H13.8333C14.2754 0.5 14.6993 0.675595 15.0118 0.988155C15.3244 1.30072 15.5 1.72464 15.5 2.16667V13.8333C15.5 14.275 15.325 14.7 15.0083 15.0083C14.7 15.325 14.275 15.5 13.8333 15.5H2.16667C1.725 15.5 1.3 15.325 0.991667 15.0083C0.675 14.7 0.5 14.275 0.5 13.8333V2.16667C0.5 1.24167 1.24167 0.5 2.16667 0.5ZM8 12.1667L9.3 9.31667L12.1667 8L9.3 6.7L8 3.83333L6.69167 6.7L3.83333 8L6.69167 9.31667L8 12.1667Z" fill="white"/>
</svg>
