<svg width="24" height="24" viewBox="0 0 24 24" fill="none" xmlns="http://www.w3.org/2000/svg">
<path fill-rule="evenodd" clip-rule="evenodd" d="M12.6564 15.6564C12.4363 15.8764 12.1379 16 11.8267 16C11.5155 16 11.2171 15.8764 10.997 15.6564L4.35827 9.01766C4.24618 8.90941 4.15678 8.77991 4.09528 8.63673C4.03377 8.49356 4.0014 8.33956 4.00004 8.18374C3.99869 8.02792 4.02838 7.87339 4.08739 7.72916C4.1464 7.58494 4.23354 7.45391 4.34372 7.34372C4.45391 7.23354 4.58494 7.1464 4.72916 7.08739C4.87339 7.02838 5.02792 6.99869 5.18374 7.00004C5.33956 7.0014 5.49356 7.03377 5.63673 7.09528C5.77991 7.15678 5.90941 7.24618 6.01766 7.35827L11.8267 13.1673L17.6358 7.35827C17.8571 7.1445 18.1535 7.02621 18.4612 7.02889C18.7689 7.03156 19.0633 7.15498 19.2808 7.37256C19.4984 7.59015 19.6219 7.88449 19.6245 8.19219C19.6272 8.49989 19.5089 8.79633 19.2951 9.01766L12.6564 15.6564Z" fill="#B3B3B3"/>
</svg>
