<svg width="19" height="18" viewBox="0 0 19 18" fill="none" xmlns="http://www.w3.org/2000/svg">
<path d="M8.1 13.2L15.15 6.15L13.75 4.75L8.1 10.4L5.25 7.55L3.85 8.95L8.1 13.2ZM2.5 18C1.95 18 1.479 17.804 1.087 17.412C0.695002 17.02 0.499335 16.5493 0.500002 16V2C0.500002 1.45 0.696002 0.979002 1.088 0.587002C1.48 0.195002 1.95067 -0.000664969 2.5 1.69779e-06H16.5C17.05 1.69779e-06 17.521 0.196002 17.913 0.588002C18.305 0.980002 18.5007 1.45067 18.5 2V16C18.5 16.55 18.304 17.021 17.912 17.413C17.52 17.805 17.0493 18.0007 16.5 18H2.5Z" fill="#401BFF"/>
</svg>
