<svg width="35" height="35" viewBox="0 0 35 35" fill="none" xmlns="http://www.w3.org/2000/svg">
<g clip-path="url(#clip0_156_3)">
<path d="M15 9.48126C9.19059 9.48126 4.48122 14.1906 4.48122 19.9969C4.48122 25.8063 9.19059 30.5156 15 30.5156C20.8093 30.5156 25.5187 25.8063 25.5187 19.9969C25.5187 14.1906 20.8093 9.48126 15 9.48126ZM12.7375 7.56564H17.2656C17.475 7.56564 17.6687 7.46251 17.7906 7.29064C17.9093 7.12189 17.9375 6.90001 17.8656 6.70314L15.6 0.571887C15.5062 0.318762 15.2687 0.153137 15 0.153137C14.7312 0.153137 14.4937 0.321887 14.4 0.571887L12.1343 6.70626C12.0625 6.90314 12.0906 7.12189 12.2093 7.29376C12.3312 7.46564 12.5281 7.56564 12.7375 7.56564ZM25.3937 12.8094C25.5125 12.9313 25.6781 12.9969 25.8437 12.9969C25.8812 12.9969 25.9187 12.9938 25.9562 12.9875C26.1625 12.95 26.3343 12.8156 26.425 12.625L29.1625 6.68439C29.275 6.44064 29.2218 6.15626 29.0343 5.96564C28.8437 5.77501 28.5562 5.72501 28.3125 5.83439L22.375 8.57501C22.1843 8.66251 22.05 8.83751 22.0125 9.04376C21.975 9.25001 22.0437 9.45939 22.1875 9.60939L25.3937 12.8094ZM34.4312 19.4L28.2937 17.1375C28.0968 17.0656 27.8781 17.0938 27.7062 17.2125C27.5343 17.3313 27.4343 17.525 27.4343 17.7344L27.4375 22.2625C27.4375 22.4719 27.5406 22.6688 27.7125 22.7875C27.8218 22.8594 27.95 22.9 28.0781 22.9C28.1531 22.9 28.2281 22.8875 28.3 22.8594L34.4375 20.5969C34.6875 20.5063 34.8562 20.2656 34.8562 19.9938C34.85 19.7313 34.6843 19.4938 34.4312 19.4ZM26.425 27.375C26.3818 27.2813 26.3166 27.1994 26.235 27.1363C26.1534 27.0732 26.0578 27.0307 25.9562 27.0125C25.75 26.9781 25.5375 27.0438 25.3937 27.1906L22.1906 30.3938C22.0437 30.5406 21.975 30.7531 22.0125 30.9594C22.05 31.1625 22.1843 31.3406 22.375 31.4281L28.3156 34.1656C28.4 34.2063 28.4906 34.2219 28.5843 34.2219C28.75 34.2219 28.9125 34.1563 29.0343 34.0344C29.225 33.8438 29.275 33.5594 29.1625 33.3156L26.425 27.375ZM17.2625 32.4313L12.7343 32.4344C12.525 32.4344 12.3312 32.5375 12.2125 32.7094C12.0937 32.8813 12.0656 33.1 12.1343 33.2938L14.4 39.4313C14.4937 39.6813 14.7312 39.85 15 39.85C15.2687 39.85 15.5062 39.6813 15.6 39.4313L17.8656 33.2938C17.9375 33.0969 17.9093 32.8781 17.7906 32.7063C17.6687 32.5344 17.475 32.4313 17.2625 32.4313ZM4.60622 27.1906C4.45934 27.0438 4.24997 26.9781 4.04372 27.0125C3.83747 27.05 3.66247 27.1844 3.57497 27.375L0.837469 33.3156C0.724969 33.5594 0.778094 33.8469 0.968719 34.0344C1.06093 34.1269 1.17935 34.1887 1.30791 34.2117C1.43648 34.2346 1.56898 34.2174 1.68747 34.1625L7.62809 31.4219C7.7218 31.3787 7.80369 31.3136 7.8668 31.2319C7.92991 31.1503 7.97238 31.0547 7.99059 30.9531C8.02809 30.7469 7.95934 30.5375 7.81247 30.3906L4.60622 27.1906ZM1.92809 22.9031C2.05622 22.9031 2.18434 22.8625 2.29372 22.7875C2.46559 22.6688 2.56872 22.4719 2.56872 22.2625L2.56559 17.7344C2.56561 17.6315 2.54078 17.5301 2.49321 17.4389C2.44564 17.3476 2.37674 17.2692 2.29237 17.2103C2.208 17.1514 2.11065 17.1137 2.0086 17.1005C1.90655 17.0873 1.80281 17.0989 1.70622 17.1344L-4.43128 19.4C-4.55417 19.4451 -4.66026 19.5268 -4.7352 19.6341C-4.81015 19.7414 -4.85034 19.8691 -4.85034 20C-4.85034 20.1309 -4.81015 20.2586 -4.7352 20.3659C-4.66026 20.4732 -4.55417 20.555 -4.43128 20.6L1.70934 22.8625C1.78122 22.8906 1.85309 22.9031 1.92809 22.9031ZM3.57809 12.625C3.62137 12.7187 3.68662 12.8005 3.76829 12.8635C3.84996 12.9265 3.94565 12.9688 4.0472 12.9869C4.14876 13.005 4.25318 12.9984 4.35159 12.9674C4.45001 12.9365 4.5395 12.8823 4.61247 12.8094L7.81247 9.60626C7.95934 9.45626 8.02497 9.24689 7.98747 9.04064C7.94997 8.83751 7.81559 8.66251 7.62497 8.57501L1.68122 5.83751C1.43747 5.72501 1.15309 5.77814 0.962469 5.96876C0.771844 6.15939 0.721844 6.44376 0.834344 6.68751L3.57809 12.625Z" fill="#FCC21B"/>
</g>
<defs>
<clipPath id="clip0_156_3">
<rect width="40" height="40" fill="white" transform="translate(-5)"/>
</clipPath>
</defs>
</svg>
