<svg width="21" height="20" viewBox="0 0 21 20" fill="none" xmlns="http://www.w3.org/2000/svg">
<path d="M2.50281 5.884L10.4998 9.882L18.4968 5.884C18.4672 5.37444 18.2439 4.89549 17.8726 4.54523C17.5014 4.19497 17.0102 3.99991 16.4998 4H4.49981C3.98939 3.99991 3.49825 4.19497 3.12699 4.54523C2.75572 4.89549 2.53241 5.37444 2.50281 5.884Z" fill="#999999"/>
<path d="M18.5 8.118L10.5 12.118L2.5 8.118V14C2.5 14.5304 2.71071 15.0391 3.08579 15.4142C3.46086 15.7893 3.96957 16 4.5 16H16.5C17.0304 16 17.5391 15.7893 17.9142 15.4142C18.2893 15.0391 18.5 14.5304 18.5 14V8.118Z" fill="#999999"/>
</svg>
