<svg width="21" height="20" viewBox="0 0 21 20" fill="none" xmlns="http://www.w3.org/2000/svg">
<path d="M10.5 14.1667C10.9421 14.1667 11.366 13.9911 11.6786 13.6785C11.9911 13.366 12.1667 12.942 12.1667 12.5C12.1667 12.058 11.9911 11.634 11.6786 11.3215C11.366 11.0089 10.9421 10.8333 10.5 10.8333C10.058 10.8333 9.63409 11.0089 9.32153 11.3215C9.00897 11.634 8.83337 12.058 8.83337 12.5C8.83337 12.942 9.00897 13.366 9.32153 13.6785C9.63409 13.9911 10.058 14.1667 10.5 14.1667ZM15.5 6.66667C15.9421 6.66667 16.366 6.84226 16.6786 7.15482C16.9911 7.46738 17.1667 7.89131 17.1667 8.33333V16.6667C17.1667 17.1087 16.9911 17.5326 16.6786 17.8452C16.366 18.1577 15.9421 18.3333 15.5 18.3333H5.50004C5.05801 18.3333 4.63409 18.1577 4.32153 17.8452C4.00897 17.5326 3.83337 17.1087 3.83337 16.6667V8.33333C3.83337 7.89131 4.00897 7.46738 4.32153 7.15482C4.63409 6.84226 5.05801 6.66667 5.50004 6.66667H6.33337V5C6.33337 3.89493 6.77236 2.83512 7.55376 2.05372C8.33516 1.27232 9.39497 0.833333 10.5 0.833333C11.0472 0.833333 11.589 0.941108 12.0946 1.1505C12.6001 1.3599 13.0594 1.66681 13.4463 2.05372C13.8332 2.44063 14.1401 2.89996 14.3495 3.40549C14.5589 3.91101 14.6667 4.45283 14.6667 5V6.66667H15.5ZM10.5 2.5C9.837 2.5 9.20111 2.76339 8.73227 3.23223C8.26343 3.70107 8.00004 4.33696 8.00004 5V6.66667H13V5C13 4.33696 12.7366 3.70107 12.2678 3.23223C11.799 2.76339 11.1631 2.5 10.5 2.5Z" fill="#999999"/>
</svg>
