<svg width="21" height="20" viewBox="0 0 21 20" fill="none" xmlns="http://www.w3.org/2000/svg">
<path d="M18.5414 17.1875C18.4865 17.2825 18.4076 17.3614 18.3125 17.4163C18.2175 17.4712 18.1097 17.5 18 17.5H2.99997C2.89031 17.4999 2.78262 17.4709 2.68769 17.416C2.59277 17.3611 2.51396 17.2822 2.45918 17.1872C2.4044 17.0922 2.37558 16.9845 2.37561 16.8748C2.37564 16.7652 2.40452 16.6575 2.45934 16.5625C3.64919 14.5055 5.48278 13.0305 7.62263 12.3313C6.56416 11.7011 5.7418 10.741 5.28183 9.59828C4.82187 8.45556 4.74972 7.19344 5.07649 6.00575C5.40325 4.81806 6.11085 3.77047 7.09061 3.02385C8.07038 2.27724 9.26815 1.87288 10.5 1.87288C11.7318 1.87288 12.9296 2.27724 13.9093 3.02385C14.8891 3.77047 15.5967 4.81806 15.9235 6.00575C16.2502 7.19344 16.1781 8.45556 15.7181 9.59828C15.2581 10.741 14.4358 11.7011 13.3773 12.3313C15.5172 13.0305 17.3508 14.5055 18.5406 16.5625C18.5956 16.6574 18.6246 16.7652 18.6247 16.8749C18.6249 16.9846 18.5961 17.0924 18.5414 17.1875Z" fill="#999999"/>
</svg>
